<svg width="79" height="44" viewBox="0 0 79 44" fill="none" xmlns="http://www.w3.org/2000/svg">
<path d="M4.77641 43.8022H0.825195L6.90716 32.0231H11.2721L17.0851 43.8022H12.6995L11.81 41.6869H5.70732L4.77641 43.8022ZM10.7549 39.1154L8.87242 34.8227L6.88647 39.1154H10.7549Z" fill="#150C2D"/>
<path d="M17.9814 32.0228H21.7672V43.8019H17.9814V32.0228Z" fill="#150C2D"/>
<path d="M23.6914 32.0228H27.4771V34.4284H23.6914V32.0228ZM23.6914 35.5897H27.4771V43.8019H23.6914V35.5897Z" fill="#150C2D"/>
<path d="M29.5444 32.0136H33.3301V36.7626C33.7852 36.3063 34.2817 35.9538 34.8403 35.7257C35.3988 35.4976 35.9987 35.3731 36.6607 35.3731C37.9433 35.3731 38.9777 35.7879 39.7638 36.6174C40.5499 37.4469 40.9429 38.546 40.9429 39.894C40.9429 41.1383 40.5499 42.1337 39.7844 42.8802C39.019 43.6268 37.9847 44.0001 36.7021 44.0001C35.9987 44.0001 35.3574 43.8756 34.7782 43.6061C34.199 43.3572 33.7232 42.9632 33.3094 42.4655C33.3094 42.7351 33.3094 42.9839 33.2681 43.212C33.2474 43.4402 33.206 43.6268 33.1646 43.7927H29.3789C29.4203 43.6475 29.4617 43.4402 29.4823 43.212C29.503 42.9839 29.5237 42.7143 29.5237 42.424V32.0136M37.1365 39.7281C37.1365 39.0023 36.971 38.4423 36.6193 38.0068C36.2883 37.5921 35.8126 37.3847 35.2333 37.3847C34.6127 37.3847 34.1369 37.5921 33.7852 37.9861C33.4542 38.3801 33.2887 38.9815 33.2887 39.7488C33.2887 40.4746 33.4542 41.0346 33.7852 41.4286C34.1162 41.8226 34.592 42.03 35.1919 42.03C35.7919 42.03 36.247 41.8226 36.5987 41.4078C36.9503 40.9931 37.1365 40.4332 37.1365 39.7281Z" fill="#150C2D"/>
<path d="M49.588 42.4821C49.2363 42.959 48.7605 43.3116 48.1813 43.5397C47.602 43.7678 46.9194 43.8922 46.0919 43.8922C44.9334 43.8922 44.0232 43.6849 43.4026 43.2701C42.782 42.8553 42.4717 42.2747 42.4717 41.5074C42.4717 40.4705 43.0095 39.7239 44.0853 39.2677C45.161 38.8115 46.9814 38.5626 49.5259 38.5419C49.5259 38.5211 49.5259 38.5004 49.5259 38.4589C49.5259 38.4175 49.5259 38.376 49.5259 38.3552C49.5259 37.9405 49.4018 37.6294 49.1536 37.422C48.9053 37.2147 48.533 37.111 48.0158 37.111C47.5607 37.111 47.209 37.1939 46.9607 37.3391C46.7125 37.4842 46.5677 37.7124 46.5263 38.0234H43.0302C43.0509 37.111 43.4853 36.4266 44.3128 35.9911C45.161 35.5556 46.4436 35.3275 48.1813 35.3275C49.8362 35.3275 51.0775 35.5764 51.9049 36.1156C52.7117 36.634 53.1255 37.422 53.1255 38.4797V42.6687C53.1255 42.9176 53.1461 43.1457 53.1668 43.2908C53.1875 43.4567 53.2289 43.6019 53.291 43.7263H49.7742C49.7121 43.5397 49.6501 43.3323 49.6294 43.1249C49.6087 42.9176 49.588 42.7102 49.588 42.4821ZM49.5052 40.1387C48.2847 40.1387 47.4365 40.2216 47.0021 40.3875C46.5677 40.5534 46.3401 40.823 46.3401 41.2171C46.3401 41.4867 46.4436 41.694 46.6711 41.8599C46.878 42.0051 47.1883 42.088 47.5814 42.088C48.2227 42.088 48.6985 41.9429 49.0294 41.6318C49.3604 41.3415 49.5052 40.8853 49.5052 40.2631V40.1387Z" fill="#150C2D"/>
<path d="M54.8598 32.0136H58.6455V36.7626C59.1007 36.3063 59.5971 35.9538 60.1557 35.7257C60.7142 35.4976 61.3142 35.3731 61.9761 35.3731C63.2587 35.3731 64.2931 35.7879 65.0792 36.6174C65.8653 37.4469 66.2583 38.546 66.2583 39.894C66.2583 41.1383 65.8653 42.1337 65.0999 42.8802C64.3345 43.6268 63.3001 44.0001 62.0175 44.0001C61.3142 44.0001 60.6729 43.8756 60.0936 43.6061C59.5144 43.3572 59.0386 42.9632 58.6249 42.4655C58.6249 42.7351 58.6042 42.9839 58.5835 43.212C58.5628 43.4402 58.5214 43.6268 58.48 43.7927H54.6943C54.7357 43.6475 54.7771 43.4402 54.7978 43.212C54.8185 42.9839 54.8391 42.7143 54.8391 42.424V32.0136M62.4519 39.7281C62.4519 39.0023 62.2864 38.4423 61.9348 38.0068C61.6038 37.5921 61.128 37.3847 60.5487 37.3847C59.9281 37.3847 59.4523 37.5921 59.1213 37.9861C58.7904 38.3801 58.6249 38.9815 58.6249 39.7488C58.6249 40.4746 58.7904 41.0346 59.1213 41.4286C59.4523 41.8226 59.9281 42.03 60.5281 42.03C61.1073 42.03 61.5831 41.8226 61.9348 41.4078C62.2864 40.9931 62.4519 40.4332 62.4519 39.7281Z" fill="#150C2D"/>
<path d="M74.9044 42.4821C74.5527 42.959 74.0769 43.3116 73.4977 43.5397C72.9184 43.7678 72.2358 43.8922 71.4083 43.8922C70.2498 43.8922 69.3396 43.6849 68.719 43.2701C68.0984 42.8553 67.7881 42.2747 67.7881 41.5074C67.7881 40.4705 68.3259 39.7239 69.4017 39.2677C70.4774 38.8115 72.2978 38.5626 74.8423 38.5419C74.8423 38.5211 74.8423 38.5004 74.8423 38.4589C74.8423 38.4175 74.8423 38.376 74.8423 38.3552C74.8423 37.9405 74.7182 37.6294 74.47 37.422C74.2217 37.2147 73.8494 37.111 73.3322 37.111C72.8771 37.111 72.5254 37.1939 72.2772 37.3391C72.0289 37.4842 71.8841 37.7124 71.8427 38.0234H68.3466C68.3673 37.111 68.8017 36.4266 69.6292 35.9911C70.4774 35.5556 71.76 35.3275 73.4977 35.3275C75.1526 35.3275 76.3939 35.5764 77.2213 36.1156C78.0281 36.634 78.4419 37.422 78.4419 38.4797V42.6687C78.4419 42.9176 78.4626 43.1457 78.4832 43.2908C78.5039 43.4567 78.5453 43.6019 78.6074 43.7263H75.0906C75.0285 43.5397 74.9665 43.3323 74.9458 43.1249C74.9251 42.9176 74.9044 42.7102 74.9044 42.4821ZM74.8216 40.1387C73.6011 40.1387 72.7736 40.2216 72.3185 40.3875C71.8841 40.5534 71.6565 40.823 71.6565 41.2171C71.6565 41.4867 71.76 41.694 71.9875 41.8599C72.1944 42.0051 72.5047 42.088 72.8978 42.088C73.5391 42.088 74.0149 41.9429 74.3458 41.6318C74.6768 41.3415 74.8216 40.8853 74.8216 40.2631V40.1387Z" fill="#150C2D"/>
<path d="M23.3007 22.9418C23.0938 22.921 22.7628 22.7344 22.5353 22.5478C20.3217 20.3703 23.1559 17.861 26.4658 16.4094V12.2618C27.2312 12.7595 27.6656 12.7802 27.6863 12.8425L30.2101 10.3332L29.3619 8.17645C36.7472 5.62569 39.7054 4.65102 45.7046 3.63486L44.6289 2.6187L46.3873 1.62329C50.4213 2.95051 54.2277 3.30306 53.5657 6.70406C53.7312 4.40216 50.8764 3.53117 46.5321 2.30764L45.684 2.82608L47.2975 4.15331C40.1192 5.39758 35.6922 6.80775 30.4377 8.63267L31.1617 10.4991L28.5138 13.1328C28.9482 13.2572 33.5614 14.7918 38.3401 11.453C38.3401 11.453 38.4435 11.3908 38.4435 11.3493C38.2987 11.1212 37.9677 10.8516 37.5747 10.4991C38.9814 10.6028 39.8916 11.8263 39.7261 13.112H39.0641C39.1055 12.6973 39.0228 12.2411 38.8779 11.9507C35.175 14.6674 30.8721 15.0614 27.2105 13.7757V16.99C25.4314 17.6122 22.2663 19.5823 22.287 21.4901C22.4111 22.3819 22.8662 22.7137 23.3007 22.9418Z" fill="#150C2D"/>
<path d="M38.4451 21.8793C34.4732 23.8909 30.6668 25.5084 24.8124 25.7366C17.1789 25.5707 15.9998 20.4899 19.5993 15.181C23.0126 9.83064 28.4326 4.97799 37.0384 1.95027C39.5415 1.05854 43.2031 0.0631296 46.7406 0.000916132C51.8296 -0.0405595 56.7737 1.53552 56.4428 6.42964C56.2566 10.1832 50.8573 15.4506 48.0232 19.2456C46.8026 20.9046 46.5958 21.983 48.6852 21.8793C56.2359 21.3816 63.0626 18.7687 69.4135 16.052C65.1106 18.976 42.9135 29.9878 42.8307 22.4807C42.8514 21.5268 43.2859 20.5106 44.0099 19.4323C44.7133 18.3539 45.6855 17.234 46.6992 16.0935C48.2093 14.3722 51.9744 10.2247 53.2363 7.73612C55.367 3.09085 50.609 2.86273 46.4923 1.41109L44.7339 2.4065L45.8097 3.42266C39.8104 4.41807 36.8522 5.41349 29.467 7.96424L30.3151 10.121L27.812 12.6095C27.75 12.5473 27.3776 12.5266 26.5915 12.0289V16.1764C23.3023 17.6281 20.4475 20.1373 22.661 22.3148C22.8885 22.5015 23.2195 22.6881 23.4264 22.7088C27.481 24.99 38.4658 21.8793 38.4451 21.8793Z" fill="#150C2D"/>
<path d="M62.1807 24.5739H62.698C62.8015 24.5739 62.8842 24.5532 62.9463 24.5324C63.0084 24.5117 63.0498 24.4702 63.0911 24.4287C63.1325 24.3665 63.1325 24.3251 63.1325 24.2628C63.1325 24.1799 63.0911 24.0969 63.0291 24.0555C62.967 23.9933 62.8635 23.9725 62.7394 23.9725H62.1807V24.5739ZM61.9531 25.6108V23.7651H62.7808C62.9463 23.7651 63.0705 23.7859 63.1532 23.8066C63.236 23.8481 63.2981 23.8896 63.3601 23.9933C63.4222 24.0762 63.4429 24.1592 63.4429 24.2628C63.4429 24.3873 63.4015 24.5117 63.3188 24.5946C63.236 24.6776 63.1118 24.7398 62.9256 24.7606C62.9877 24.7813 63.0498 24.8228 63.0705 24.8435C63.1325 24.9057 63.2153 24.9887 63.2774 25.0924L63.6084 25.5901H63.2981L63.0498 25.2168C62.9877 25.0924 62.9256 25.0094 62.8635 24.9472C62.8222 24.885 62.7808 24.8435 62.7394 24.8228C62.698 24.802 62.6773 24.7813 62.6359 24.7813C62.6152 24.7813 62.5739 24.7813 62.4911 24.7813H62.1807V25.6108H61.9531Z" fill="#150C2D"/>
<path d="M62.6891 26.4654C63.6613 26.4654 64.4474 25.6773 64.4474 24.7027C64.4474 23.728 63.6613 22.9399 62.6891 22.9399C61.7168 22.9399 60.9307 23.728 60.9307 24.7027C60.9307 25.6773 61.7168 26.4654 62.6891 26.4654ZM61.1996 24.7027C61.1996 23.8731 61.8616 23.2095 62.6891 23.2095C63.5165 23.2095 64.1785 23.8731 64.1785 24.7027C64.1785 25.5114 63.5165 26.1958 62.6891 26.1958C61.8616 26.1958 61.1996 25.5322 61.1996 24.7027Z" fill="#150C2D"/>
</svg>
