<svg width="147" height="44" viewBox="0 0 147 44" fill="none" xmlns="http://www.w3.org/2000/svg">
<path d="M91.3136 34.4094C82.8164 40.6633 70.5003 44 59.8963 44C45.0279 44 31.6424 38.5088 21.5158 29.3757C20.7202 28.6575 21.4331 27.6788 22.3878 28.2381C33.3164 34.5873 46.8291 38.4071 60.7874 38.4071C70.2011 38.4071 80.5568 36.4623 90.0788 32.4264C91.5172 31.8163 92.7202 33.3671 91.3136 34.4094Z" fill="#150C2D"/>
<path d="M94.8462 30.3736C93.7642 28.9881 87.6666 29.719 84.9297 30.0431C84.0959 30.1448 83.9686 29.4203 84.7196 28.8991C89.5761 25.4861 97.545 26.4712 98.4742 27.6153C99.4035 28.7656 98.2324 36.7419 93.6687 40.5489C92.9686 41.1337 92.3003 40.8222 92.6121 40.0469C93.6369 37.4919 95.9346 31.7655 94.8462 30.3736" fill="#150C2D"/>
<path d="M85.1219 4.80483V1.4872C85.1219 0.985102 85.5038 0.648254 85.9621 0.648254H100.837C101.314 0.648254 101.696 0.991458 101.696 1.4872V4.32816C101.69 4.80483 101.289 5.42768 100.576 6.4128L92.868 17.4017C95.7322 17.3318 98.7556 17.7576 101.352 19.2194C101.938 19.5499 102.097 20.0329 102.142 20.5096V24.0497C102.142 24.5327 101.607 25.0983 101.047 24.806C96.4706 22.4099 90.3921 22.1493 85.332 24.8314C84.8164 25.1111 84.2754 24.5518 84.2754 24.0687V20.7066C84.2754 20.1664 84.2818 19.2448 84.8228 18.4249L93.7528 5.63742H85.9812C85.5038 5.63742 85.1219 5.30058 85.1219 4.80483" fill="#150C2D"/>
<path d="M30.8592 25.5051H26.3337C25.9009 25.4734 25.5572 25.1492 25.5254 24.7361V1.54445C25.5254 1.08049 25.9137 0.711857 26.3974 0.711857H30.6173C31.0565 0.730912 31.4066 1.06777 31.4384 1.48724V4.51888H31.5212C32.6223 1.58893 34.6909 0.222473 37.4787 0.222473C40.3111 0.222473 42.0805 1.58893 43.3535 4.51888C44.4483 1.58893 46.937 0.222473 49.6039 0.222473C51.5006 0.222473 53.5756 1.00421 54.8422 2.75837C56.2743 4.70954 55.9815 7.54415 55.9815 10.0292L55.9752 24.6662C55.9752 25.1302 55.5869 25.5051 55.1032 25.5051H50.5841C50.1322 25.4734 49.7694 25.1111 49.7694 24.6662V12.3744C49.7694 11.3957 49.8585 8.9551 49.6421 8.02718C49.3047 6.47006 48.2927 6.03151 46.9815 6.03151C45.8868 6.03151 44.7411 6.76241 44.2764 7.93185C43.8118 9.10128 43.8564 11.0588 43.8564 12.3744V24.6662C43.8564 25.1302 43.4681 25.5051 42.9844 25.5051H38.4653C38.007 25.4734 37.6506 25.1111 37.6506 24.6662L37.6442 12.3744C37.6442 9.78769 38.0706 5.98067 34.8564 5.98067C31.6039 5.98067 31.7312 9.69235 31.7312 12.3744V24.6662C31.7312 25.1302 31.3429 25.5051 30.8592 25.5051Z" fill="#150C2D"/>
<path d="M114.501 0.222473C121.216 0.222473 124.851 5.98067 124.851 13.3023C124.851 20.3762 120.834 25.9882 114.501 25.9882C107.907 25.9882 104.317 20.23 104.317 13.0545C104.317 5.83449 107.952 0.222473 114.501 0.222473M114.539 4.95742C111.204 4.95742 110.994 9.49533 110.994 12.3236C110.994 15.1582 110.95 21.2087 114.501 21.2087C118.008 21.2087 118.174 16.3276 118.174 13.3532C118.174 11.3957 118.091 9.05679 117.499 7.20095C116.99 5.58662 115.978 4.95742 114.539 4.95742" fill="#150C2D"/>
<path d="M133.558 25.5051H129.052C128.6 25.4734 128.237 25.1111 128.237 24.6662L128.23 1.46818C128.269 1.04235 128.644 0.711857 129.102 0.711857H133.297C133.692 0.730912 134.016 0.997861 134.105 1.36013V4.90657H134.188C135.455 1.73511 137.23 0.222473 140.356 0.222473C142.386 0.222473 144.366 0.953371 145.639 2.95539C146.822 4.81123 146.822 7.93185 146.822 10.1754V24.7743C146.771 25.181 146.396 25.5051 145.95 25.5051H141.412C140.998 25.4734 140.655 25.1683 140.61 24.7743V12.1774C140.61 9.64151 140.903 5.92982 137.778 5.92982C136.677 5.92982 135.665 6.66708 135.162 7.78567C134.525 9.20297 134.443 10.6139 134.443 12.1774V24.6662C134.436 25.1302 134.042 25.5051 133.558 25.5051" fill="#150C2D"/>
<path d="M13.9361 14.4273V13.4486C10.6645 13.4486 7.20835 14.1477 7.20835 17.9992C7.20835 19.9504 8.22037 21.2723 9.95799 21.2723C11.231 21.2723 12.3703 20.4906 13.0895 19.2195C13.9806 17.656 13.9361 16.1878 13.9361 14.4273M18.4997 25.4416C18.2006 25.7086 17.7678 25.7276 17.4304 25.5497C15.9283 24.304 15.661 23.7256 14.8335 22.5371C12.3512 25.0666 10.5945 25.823 7.37384 25.823C3.56761 25.823 0.601562 23.4777 0.601562 18.7809C0.601562 15.1137 2.59378 12.616 5.42617 11.3957C7.88303 10.3152 11.3137 10.1246 13.9361 9.82586V9.24114C13.9361 8.16704 14.0188 6.89591 13.3887 5.968C12.8349 5.13541 11.7784 4.7922 10.8491 4.7922C9.12419 4.7922 7.58388 5.67563 7.20835 7.50605C7.13197 7.91282 6.83282 8.31322 6.42547 8.33229L2.03367 7.86197C1.6645 7.77935 1.25715 7.48063 1.35899 6.91498C2.37101 1.60168 7.17652 6.10352e-05 11.4792 6.10352e-05C13.6815 6.10352e-05 16.5584 0.584778 18.296 2.24995C20.4983 4.30282 20.2883 7.04209 20.2883 10.0229V17.0649C20.2883 19.1813 21.1666 20.1093 21.9941 21.2533C22.2868 21.66 22.3505 22.1494 21.9813 22.4545C21.0584 23.2235 19.4163 24.6535 18.5124 25.4543L18.4997 25.4416" fill="#150C2D"/>
<path d="M72.689 14.4273V13.4486C69.4174 13.4486 65.9613 14.1477 65.9613 17.9992C65.9613 19.9504 66.9733 21.2723 68.7109 21.2723C69.9839 21.2723 71.1232 20.4906 71.8425 19.2195C72.7336 17.656 72.689 16.1878 72.689 14.4273M77.2527 25.4416C76.9535 25.7086 76.5207 25.7276 76.1833 25.5497C74.6812 24.304 74.4139 23.7256 73.5865 22.5371C71.1041 25.0666 69.3474 25.823 66.1268 25.823C62.3205 25.823 59.3545 23.4777 59.3545 18.7809C59.3545 15.1137 61.3467 12.616 64.1791 11.3957C66.636 10.3152 70.0667 10.1246 72.689 9.82586V9.24114C72.689 8.16704 72.7717 6.89591 72.1416 5.968C71.5879 5.13541 70.5313 4.7922 69.602 4.7922C67.8771 4.7922 66.3368 5.67563 65.9613 7.50605C65.8849 7.91282 65.5857 8.31322 65.1784 8.33229L60.7866 7.86197C60.4174 7.77935 60.0101 7.48063 60.1119 6.91498C61.1239 1.60168 65.9295 6.10352e-05 70.2321 6.10352e-05C72.4344 6.10352e-05 75.3113 0.584778 77.049 2.24995C79.2512 4.30282 79.0412 7.04209 79.0412 10.0229V17.0649C79.0412 19.1813 79.9196 20.1093 80.747 21.2533C81.0398 21.66 81.1034 22.1494 80.7343 22.4545C79.8113 23.2235 78.1692 24.6535 77.2654 25.4543L77.2527 25.4416" fill="#150C2D"/>
</svg>
