<svg width="16" height="16" viewBox="0 0 16 16" fill="none" xmlns="http://www.w3.org/2000/svg">
<g clip-path="url(#clip0_163_1210)">
<path d="M4.15634 4.302C3.30637 5.1842 2.78601 6.3321 2.68272 7.55278C2.57944 8.77346 2.89952 9.99248 3.58918 11.0049C4.27884 12.0174 5.29602 12.7616 6.46975 13.1124C7.64348 13.4632 8.9022 13.3993 10.0343 12.9313C10.111 12.4313 9.94301 11.9513 9.87434 11.7833C9.72101 11.41 9.21567 10.772 8.37234 9.88734C8.14701 9.65067 8.16167 9.46867 8.24234 8.92934L8.25101 8.86867C8.30567 8.49934 8.39767 8.28067 9.64101 8.08334C10.273 7.98334 10.439 8.23534 10.669 8.58534L10.7463 8.7C10.965 9.02 11.127 9.09334 11.3717 9.204C11.4817 9.254 11.6183 9.31734 11.8017 9.42067C12.2363 9.66934 12.2363 9.95 12.2363 10.5647V10.6347C12.2363 10.8953 12.211 11.1247 12.171 11.324C12.6826 10.6819 13.0391 9.93049 13.2127 9.12813C13.3864 8.32577 13.3725 7.49415 13.1722 6.69802C12.9719 5.9019 12.5906 5.16274 12.0579 4.53809C11.5252 3.91345 10.8555 3.42018 10.101 3.09667C9.73234 3.34534 9.22634 3.698 9.04967 3.94C8.95967 4.06334 8.83167 4.69467 8.41634 4.74667C8.30834 4.76 8.16234 4.75067 8.00767 4.74067C7.59301 4.714 7.02634 4.67734 6.84501 5.17C6.72967 5.482 6.70967 6.33 7.08234 6.77C7.14234 6.84 7.15367 6.97 7.11301 7.116C7.05967 7.30734 6.95234 7.424 6.91834 7.448C6.85434 7.41067 6.72634 7.262 6.63901 7.16134C6.43034 6.918 6.16901 6.61467 5.83167 6.52134C5.70901 6.48734 5.57434 6.45934 5.44301 6.43134C5.07701 6.35467 4.66301 6.26734 4.56634 6.062C4.49567 5.91134 4.49634 5.704 4.49634 5.48534C4.49634 5.20734 4.49634 4.89334 4.36034 4.58867C4.31306 4.47994 4.24358 4.3823 4.15634 4.302V4.302ZM7.99967 14.6667C4.31767 14.6667 1.33301 11.682 1.33301 8C1.33301 4.318 4.31767 1.33334 7.99967 1.33334C11.6817 1.33334 14.6663 4.318 14.6663 8C14.6663 11.682 11.6817 14.6667 7.99967 14.6667Z" fill="#150C2D"/>
</g>
<defs>
<clipPath id="clip0_163_1210">
<rect width="16" height="16" fill="white"/>
</clipPath>
</defs>
</svg>
