<svg width="26" height="26" viewBox="0 0 26 26" fill="none" xmlns="http://www.w3.org/2000/svg">
<path d="M17.0666 24.2667H8.53324C2.3999 24.2667 2.3999 21.0133 2.3999 18.1333V17.0667C2.3999 14.688 2.3999 12 7.46657 12C8.7359 12 9.20524 12.3093 9.86657 12.8C9.89857 12.832 9.94124 12.8533 9.97324 12.896L11.0612 14.048C11.9786 15.0187 13.6426 15.0187 14.5599 14.048L15.6479 12.896C15.6799 12.864 15.7119 12.832 15.7546 12.8C16.4159 12.2987 16.8852 12 18.1546 12C23.2212 12 23.2212 14.688 23.2212 17.0667V18.1333C23.1999 22.208 21.1412 24.2667 17.0666 24.2667ZM7.46657 13.6C3.9999 13.6 3.9999 14.688 3.9999 17.0667V18.1333C3.9999 21.056 3.9999 22.6667 8.53324 22.6667H17.0666C20.2452 22.6667 21.5999 21.312 21.5999 18.1333V17.0667C21.5999 14.688 21.5999 13.6 18.1332 13.6C17.3652 13.6 17.2052 13.696 16.7466 14.0373L15.7119 15.136C14.9439 15.9467 13.9092 16.3947 12.7999 16.3947C11.6906 16.3947 10.6559 15.9467 9.8879 15.136L8.85324 14.0373C8.39457 13.696 8.23457 13.6 7.46657 13.6Z" fill="#150C2D"/>
<path d="M20.2665 13.6C19.8292 13.6 19.4665 13.2374 19.4665 12.8V6.40004C19.4665 4.02137 19.4665 2.93337 15.9999 2.93337H9.59987C6.1332 2.93337 6.1332 4.02137 6.1332 6.40004V12.8C6.1332 13.2374 5.77054 13.6 5.3332 13.6C4.89587 13.6 4.5332 13.2374 4.5332 12.8V6.40004C4.5332 4.02137 4.5332 1.33337 9.59987 1.33337H15.9999C21.0665 1.33337 21.0665 4.02137 21.0665 6.40004V12.8C21.0665 13.2374 20.7039 13.6 20.2665 13.6Z" fill="#150C2D"/>
<path d="M14.8051 10.6453H11.2531C10.8158 10.6453 10.4531 10.2826 10.4531 9.84529C10.4531 9.40795 10.8158 9.04529 11.2531 9.04529H14.8051C15.2425 9.04529 15.6051 9.40795 15.6051 9.84529C15.6051 10.2826 15.2531 10.6453 14.8051 10.6453Z" fill="#150C2D"/>
<path d="M15.7017 7.44534H10.3684C9.93103 7.44534 9.56836 7.08267 9.56836 6.64534C9.56836 6.208 9.93103 5.84534 10.3684 5.84534H15.7017C16.139 5.84534 16.5017 6.208 16.5017 6.64534C16.5017 7.08267 16.1497 7.44534 15.7017 7.44534Z" fill="#150C2D"/>
</svg>
