<svg width="20" height="20" viewBox="0 0 20 20" fill="none" xmlns="http://www.w3.org/2000/svg">
<g clip-path="url(#clip0_160_1170)">
<path d="M10.8337 16.615C12.5147 16.4011 14.0513 15.5551 15.131 14.249C16.2107 12.9429 16.7526 11.2746 16.6465 9.58331C16.5404 7.89201 15.7942 6.30457 14.5597 5.14365C13.3252 3.98272 11.695 3.33543 10.0003 3.33333C8.30363 3.33207 6.67028 3.97778 5.43311 5.1389C4.19593 6.30001 3.44803 7.88916 3.34178 9.58253C3.23553 11.2759 3.77894 12.9461 4.86128 14.2527C5.94362 15.5594 7.48344 16.4042 9.16699 16.615V11.6667H7.50033V10H9.16699V8.62166C9.16699 7.5075 9.28366 7.10333 9.50033 6.69583C9.71375 6.29265 10.0436 5.96307 10.447 5.75C10.7653 5.57916 11.1612 5.47666 11.8528 5.4325C12.127 5.415 12.482 5.43666 12.9178 5.49916V7.0825H12.5003C11.7362 7.0825 11.4203 7.11833 11.232 7.21916C11.1196 7.27696 11.0281 7.36845 10.9703 7.48083C10.8703 7.66916 10.8337 7.85583 10.8337 8.62083V10H12.917L12.5003 11.6667H10.8337V16.615ZM10.0003 18.3333C5.39783 18.3333 1.66699 14.6025 1.66699 10C1.66699 5.3975 5.39783 1.66666 10.0003 1.66666C14.6028 1.66666 18.3337 5.3975 18.3337 10C18.3337 14.6025 14.6028 18.3333 10.0003 18.3333Z" fill="#150C2D"/>
</g>
<defs>
<clipPath id="clip0_160_1170">
<rect width="20" height="20" fill="white"/>
</clipPath>
</defs>
</svg>
