<svg width="20" height="20" viewBox="0 0 20 20" fill="none" xmlns="http://www.w3.org/2000/svg">
<g clip-path="url(#clip0_159_1161)">
<path d="M10.0003 7.5C9.33728 7.5 8.7014 7.76339 8.23256 8.23223C7.76372 8.70107 7.50033 9.33696 7.50033 10C7.50033 10.663 7.76372 11.2989 8.23256 11.7678C8.7014 12.2366 9.33728 12.5 10.0003 12.5C10.6634 12.5 11.2993 12.2366 11.7681 11.7678C12.2369 11.2989 12.5003 10.663 12.5003 10C12.5003 9.33696 12.2369 8.70107 11.7681 8.23223C11.2993 7.76339 10.6634 7.5 10.0003 7.5ZM10.0003 5.83333C11.1054 5.83333 12.1652 6.27232 12.9466 7.05372C13.728 7.83512 14.167 8.89493 14.167 10C14.167 11.1051 13.728 12.1649 12.9466 12.9463C12.1652 13.7277 11.1054 14.1667 10.0003 14.1667C8.89526 14.1667 7.83545 13.7277 7.05405 12.9463C6.27265 12.1649 5.83366 11.1051 5.83366 10C5.83366 8.89493 6.27265 7.83512 7.05405 7.05372C7.83545 6.27232 8.89526 5.83333 10.0003 5.83333V5.83333ZM15.417 5.625C15.417 5.90126 15.3072 6.16622 15.1119 6.36157C14.9165 6.55692 14.6516 6.66666 14.3753 6.66666C14.0991 6.66666 13.8341 6.55692 13.6388 6.36157C13.4434 6.16622 13.3337 5.90126 13.3337 5.625C13.3337 5.34873 13.4434 5.08378 13.6388 4.88843C13.8341 4.69308 14.0991 4.58333 14.3753 4.58333C14.6516 4.58333 14.9165 4.69308 15.1119 4.88843C15.3072 5.08378 15.417 5.34873 15.417 5.625V5.625ZM10.0003 3.33333C7.93866 3.33333 7.60199 3.33916 6.64283 3.38166C5.98949 3.4125 5.55116 3.5 5.14449 3.65833C4.78283 3.79833 4.52199 3.96583 4.24449 4.24416C3.98366 4.49616 3.78312 4.80382 3.65783 5.14416C3.49949 5.5525 3.41199 5.99 3.38199 6.6425C3.33866 7.5625 3.33366 7.88416 3.33366 10C3.33366 12.0617 3.33949 12.3983 3.38199 13.3575C3.41283 14.01 3.50033 14.4492 3.65783 14.855C3.79949 15.2175 3.96616 15.4783 4.24283 15.755C4.52366 16.035 4.78449 16.2025 5.14283 16.3408C5.55449 16.5 5.99283 16.5883 6.64283 16.6183C7.56283 16.6617 7.88449 16.6667 10.0003 16.6667C12.062 16.6667 12.3987 16.6608 13.3578 16.6183C14.0095 16.5875 14.4487 16.5 14.8553 16.3425C15.2162 16.2017 15.4787 16.0342 15.7553 15.7575C16.0362 15.4767 16.2037 15.2158 16.342 14.8575C16.5003 14.4467 16.5887 14.0075 16.6187 13.3575C16.662 12.4375 16.667 12.1158 16.667 10C16.667 7.93833 16.6612 7.60166 16.6187 6.6425C16.5878 5.99083 16.5003 5.55083 16.342 5.14416C16.2164 4.80417 16.0162 4.49663 15.7562 4.24416C15.5043 3.9832 15.1966 3.78264 14.8562 3.6575C14.4478 3.49916 14.0095 3.41166 13.3578 3.38166C12.4378 3.33833 12.1162 3.33333 10.0003 3.33333ZM10.0003 1.66666C12.2645 1.66666 12.547 1.675 13.4353 1.71666C14.3228 1.75833 14.927 1.8975 15.4587 2.10416C16.0087 2.31583 16.472 2.6025 16.9353 3.065C17.3591 3.48158 17.687 3.98549 17.8962 4.54166C18.102 5.0725 18.242 5.6775 18.2837 6.565C18.3228 7.45333 18.3337 7.73583 18.3337 10C18.3337 12.2642 18.3253 12.5467 18.2837 13.435C18.242 14.3225 18.102 14.9267 17.8962 15.4583C17.6876 16.0148 17.3596 16.5188 16.9353 16.935C16.5186 17.3586 16.0148 17.6865 15.4587 17.8958C14.9278 18.1017 14.3228 18.2417 13.4353 18.2833C12.547 18.3225 12.2645 18.3333 10.0003 18.3333C7.73616 18.3333 7.45366 18.325 6.56533 18.2833C5.67783 18.2417 5.07366 18.1017 4.54199 17.8958C3.9856 17.6871 3.4816 17.3591 3.06533 16.935C2.6415 16.5185 2.3136 16.0146 2.10449 15.4583C1.89783 14.9275 1.75866 14.3225 1.71699 13.435C1.67783 12.5467 1.66699 12.2642 1.66699 10C1.66699 7.73583 1.67533 7.45333 1.71699 6.565C1.75866 5.67666 1.89783 5.07333 2.10449 4.54166C2.31302 3.98515 2.641 3.4811 3.06533 3.065C3.48172 2.64102 3.98568 2.31311 4.54199 2.10416C5.07366 1.8975 5.67699 1.75833 6.56533 1.71666C7.45366 1.6775 7.73616 1.66666 10.0003 1.66666Z" fill="#150C2D"/>
</g>
<defs>
<clipPath id="clip0_159_1161">
<rect width="20" height="20" fill="white"/>
</clipPath>
</defs>
</svg>
