<svg width="17" height="17" viewBox="0 0 17 17" fill="none" xmlns="http://www.w3.org/2000/svg">
<path d="M8.80268 9.6294C7.39557 9.6294 6.24609 8.48653 6.24609 7.07281C6.24609 5.65909 7.39557 4.52283 8.80268 4.52283C10.2098 4.52283 11.3593 5.66569 11.3593 7.07941C11.3593 8.49314 10.2098 9.6294 8.80268 9.6294ZM8.80268 5.51375C7.94388 5.51375 7.23702 6.21401 7.23702 7.07941C7.23702 7.94482 7.93727 8.64508 8.80268 8.64508C9.66809 8.64508 10.3683 7.94482 10.3683 7.07941C10.3683 6.21401 9.66148 5.51375 8.80268 5.51375Z" fill="#150C2D"/>
<path d="M8.80179 15.3041C7.82408 15.3041 6.83976 14.9342 6.07344 14.2009C4.12462 12.3247 1.97101 9.33213 2.78357 5.77141C3.51685 2.54099 6.33769 1.09424 8.80179 1.09424C8.80179 1.09424 8.80179 1.09424 8.8084 1.09424C11.2725 1.09424 14.0933 2.54099 14.8266 5.77801C15.6326 9.33874 13.479 12.3247 11.5301 14.2009C10.7638 14.9342 9.7795 15.3041 8.80179 15.3041ZM8.80179 2.08516C6.87939 2.08516 4.40869 3.10912 3.75468 5.98941C3.04121 9.10091 4.99664 11.783 6.76709 13.4808C7.90996 14.584 9.70023 14.584 10.8431 13.4808C12.6069 11.783 14.5624 9.10091 13.8621 5.98941C13.2015 3.10912 10.7242 2.08516 8.80179 2.08516Z" fill="#150C2D"/>
</svg>
