<svg width="149" height="44" viewBox="0 0 149 44" fill="none" xmlns="http://www.w3.org/2000/svg">
<path d="M119.853 36.8745H30.3398L37.4795 44L119.853 36.8745Z" fill="#150C2D"/>
<path d="M134.222 32.3321V18.0811C134.222 15.4091 136.096 13.1823 138.773 13.1823C141.451 13.1823 143.325 15.4091 143.325 18.0811V32.3321H148.858V18.0811C148.858 12.2026 144.842 7.48193 138.952 7.48193C136.274 7.48193 134.222 8.9961 134.222 8.9961V8.01635H128.688V32.243H134.222V32.3321Z" fill="#150C2D"/>
<path d="M115.925 7.39288C109.5 7.39288 104.948 13.0042 104.948 20.1297C104.948 27.6115 110.66 32.8665 116.461 32.8665C119.406 32.8665 123.065 31.8868 126.189 27.4333L121.28 24.5831C117.532 30.1054 111.195 27.3443 110.481 21.7329H126.367C127.795 13.1823 122.173 7.39288 115.925 7.39288ZM120.745 17.0123H110.838C111.999 11.401 119.674 11.0447 120.745 17.0123Z" fill="#150C2D"/>
<path d="M103.165 26.5426C102.63 26.8988 102.005 27.166 101.291 27.166C100.399 27.166 98.7029 26.4535 98.7029 24.2268V13.8057H103.433V8.01627H98.7029V1.95959H93.1697V8.01627H90.2246V13.8057H93.1697V24.2268C93.1697 29.66 97.275 32.8664 101.38 32.8664C102.897 32.8664 105.039 32.332 106.735 31.3523L103.165 26.5426Z" fill="#150C2D"/>
<path d="M82.8159 8.0163V22.2673C82.8159 24.9394 80.9417 27.1661 78.2644 27.1661C75.587 27.1661 73.7129 24.9394 73.7129 22.2673V8.0163H68.1797V22.2673C68.1797 28.1458 72.1957 32.8665 78.0859 32.8665C80.7632 32.8665 82.8159 31.3523 82.8159 31.3523V32.243H88.3491V8.0163H82.8159Z" fill="#150C2D"/>
<path d="M57.8258 19.417L67.2858 8.01619H59.6107L52.9174 16.4777V0H47.2949V32.332H52.9174V22.3563L61.1279 32.332H68.803L57.8258 19.417Z" fill="#150C2D"/>
<path d="M38.6391 8.01636V9.08519C36.9434 8.01636 35.5155 7.39288 33.4629 7.39288C27.2157 7.39288 22.3965 13.0933 22.3965 20.1297C22.3965 27.1661 27.1265 32.8665 33.4629 32.8665C35.5155 32.8665 37.0327 32.2431 38.6391 31.1742V32.2431H44.1723V8.01636H38.6391ZM33.3736 27.0771C30.2501 27.0771 28.0189 24.0487 28.0189 20.2188C28.0189 16.3888 30.2501 13.3605 33.3736 13.3605C36.4972 13.3605 38.6391 16.3888 38.6391 20.2188C38.7283 24.0487 36.4972 27.0771 33.3736 27.0771Z" fill="#150C2D"/>
<path d="M6.51187 32.332V22.8907H10.5279L17.5783 32.243H24.8071L16.2396 20.9312C18.9169 19.0608 20.6126 15.9434 20.6126 12.3806C20.6126 6.59117 15.8826 1.95959 10.1709 1.95959H0.710938V32.243H6.51187V32.332ZM6.51187 7.74906H10.2602C12.8483 7.74906 14.9902 9.88671 14.9902 12.4697C14.9902 15.0527 12.8483 17.1903 10.2602 17.1903H6.51187V7.74906Z" fill="#150C2D"/>
</svg>
