<svg width="156" height="44" viewBox="0 0 156 44" fill="none" xmlns="http://www.w3.org/2000/svg">
<path d="M34.0723 8.3336C34.0423 8.11504 33.851 7.99379 33.6922 7.98059C33.5346 7.96739 30.4475 7.92058 30.4475 7.92058C30.4475 7.92058 27.8657 5.41831 27.6106 5.16376C27.3556 4.90922 26.8575 4.98606 26.6638 5.04369C26.6614 5.0449 26.179 5.19378 25.3669 5.44473C25.231 5.00528 25.0312 4.46496 24.7461 3.92224C23.827 2.17162 22.4807 1.24589 20.8541 1.24349C20.8518 1.24349 20.8505 1.24349 20.8481 1.24349C20.735 1.24349 20.6232 1.2543 20.5101 1.2639C20.462 1.20626 20.4138 1.14984 20.3633 1.0946C19.6547 0.338162 18.7464 -0.0304524 17.6576 0.00196638C15.557 0.0620013 13.4649 1.57608 11.7686 4.26564C10.5751 6.15794 9.66678 8.53535 9.40934 10.376C6.99716 11.1216 5.31044 11.6427 5.27315 11.6547C4.05563 12.0365 4.01714 12.0737 3.85833 13.2193C3.74043 14.0849 0.554688 38.6705 0.554688 38.6705L27.2521 43.2787L38.8233 40.4078C38.8233 40.4078 34.1024 8.55216 34.0723 8.3336ZM24.0303 5.85776C23.4155 6.04748 22.7165 6.2636 21.9586 6.49774C21.943 5.43632 21.8166 3.95947 21.321 2.68312C22.915 2.9845 23.6994 4.78434 24.0303 5.85776ZM20.5618 6.92999C19.1626 7.36221 17.6359 7.83409 16.1044 8.3072C16.5351 6.66103 17.352 5.02208 18.3554 3.94746C18.7283 3.54763 19.2505 3.10217 19.8688 2.84762C20.4499 4.05792 20.5762 5.77132 20.5618 6.92999ZM17.6997 1.39717C18.1929 1.38637 18.608 1.49443 18.9629 1.72737C18.3951 2.02154 17.8465 2.44419 17.3316 2.9953C15.9973 4.42414 14.9747 6.64182 14.5669 8.78146C13.2952 9.17407 12.0512 9.55954 10.9059 9.91255C11.629 6.54457 14.4574 1.49083 17.6997 1.39717Z" fill="#150C2D"/>
<path d="M33.693 7.98181C33.5354 7.96861 30.4483 7.9218 30.4483 7.9218C30.4483 7.9218 27.8665 5.41953 27.6115 5.16498C27.5164 5.07012 27.3877 5.02089 27.2529 5.00049L27.2542 43.2775L38.8241 40.4079C38.8241 40.4079 34.1033 8.55338 34.0732 8.33482C34.0431 8.11627 33.8506 7.99501 33.693 7.98181Z" fill="#150C2D"/>
<path d="M20.8394 13.9191L19.4957 18.9368C19.4957 18.9368 17.9966 18.256 16.2197 18.3677C13.6138 18.5322 13.5861 20.1723 13.6126 20.5842C13.7546 22.8283 19.67 23.3182 20.0021 28.5748C20.2632 32.71 17.8041 35.5389 14.2611 35.7622C10.0082 36.0299 7.66699 33.5265 7.66699 33.5265L8.56811 29.7011C8.56811 29.7011 10.9249 31.4757 12.8113 31.3568C14.0433 31.2788 14.4836 30.2786 14.4391 29.5714C14.2538 26.6441 9.4367 26.817 9.13235 22.007C8.87607 17.9595 11.5397 13.8579 17.4167 13.4881C19.6809 13.3428 20.8394 13.9191 20.8394 13.9191Z" fill="#E8E8E8"/>
<path d="M54.0604 24.4263C52.7299 23.7058 52.0461 23.0985 52.0461 22.2636C52.0461 21.2013 52.9959 20.5189 54.4792 20.5189C56.2058 20.5189 57.7475 21.2394 57.7475 21.2394L58.9634 17.5214C58.9634 17.5214 57.8453 16.6485 54.5543 16.6485C49.9746 16.6485 46.8005 19.2661 46.8005 22.946C46.8005 25.0324 48.2825 26.6259 50.2597 27.7632C51.8564 28.6731 52.4267 29.3186 52.4267 30.2665C52.4267 31.2526 51.6285 32.0493 50.1464 32.0493C47.9377 32.0493 45.8518 30.9108 45.8518 30.9108L44.5596 34.6288C44.5596 34.6288 46.4867 35.9186 49.7288 35.9186C54.4422 35.9186 57.8251 33.6046 57.8251 29.4317C57.8239 27.1952 56.1139 25.6017 54.0604 24.4263Z" fill="#150C2D"/>
<path d="M72.8391 16.6115C70.5204 16.6115 68.6959 17.7119 67.2903 19.3804L67.2139 19.3422L69.2281 8.8349H63.9825L58.8896 35.5779H64.1352L65.8834 26.4365C66.5671 22.9841 68.3534 20.8607 70.0264 20.8607C71.2041 20.8607 71.6612 21.6574 71.6612 22.7959C71.6612 23.5164 71.5848 24.3893 71.4332 25.1099L69.4572 35.5791H74.7031L76.7549 24.768C76.9833 23.6295 77.1358 22.2648 77.1358 21.3537C77.1336 18.3943 75.5754 16.6115 72.8391 16.6115Z" fill="#150C2D"/>
<path d="M88.9918 16.6114C82.6816 16.6114 78.502 22.3016 78.502 28.636C78.502 32.6946 81.0099 35.9565 85.7236 35.9565C91.9189 35.9565 96.1 30.4188 96.1 23.9319C96.1 20.177 93.8949 16.6114 88.9918 16.6114ZM86.4073 31.9372C84.6207 31.9372 83.8603 30.42 83.8603 28.5228C83.8603 25.5265 85.4193 20.6331 88.2698 20.6331C90.1323 20.6331 90.7394 22.2265 90.7394 23.7819C90.7394 27.0056 89.1826 31.9372 86.4073 31.9372Z" fill="#150C2D"/>
<path d="M109.516 16.6114C105.975 16.6114 103.966 19.722 103.966 19.722H103.891L104.195 16.9151H99.5577C99.33 18.8122 98.9109 21.6942 98.4938 23.8569L94.8447 43.0126H100.09L101.534 35.2741H101.649C101.649 35.2741 102.725 35.9565 104.727 35.9565C110.884 35.9565 114.913 29.6602 114.913 23.2865C114.913 19.7602 113.354 16.6114 109.516 16.6114ZM104.498 32.0122C103.137 32.0122 102.331 31.2536 102.331 31.2536L103.205 26.3602C103.814 23.0983 105.524 20.9356 107.349 20.9356C108.945 20.9356 109.439 22.4147 109.439 23.8188C109.439 27.195 107.425 32.0122 104.498 32.0122Z" fill="#150C2D"/>
<path d="M122.402 9.1004C120.73 9.1004 119.399 10.4283 119.399 12.1348C119.399 13.6902 120.387 14.7525 121.87 14.7525H121.946C123.58 14.7525 124.986 13.652 125.024 11.718C125.024 10.2008 123.998 9.1004 122.402 9.1004Z" fill="#150C2D"/>
<path d="M115.066 35.5779H120.311L123.885 17.0295H118.601L115.066 35.5779Z" fill="#150C2D"/>
<path d="M137.225 16.9913H133.576L133.765 16.1184C134.07 14.3356 135.134 12.7421 136.883 12.7421C137.816 12.7421 138.554 13.0077 138.554 13.0077L139.581 8.91105C139.581 8.91105 138.668 8.45612 136.729 8.45612C134.867 8.45612 133.006 8.98722 131.599 10.2008C129.812 11.718 128.976 13.9176 128.558 16.1184L128.407 16.9913H125.974L125.213 20.9368H127.647L124.872 35.579H130.118L132.892 20.9368H136.503L137.225 16.9913Z" fill="#150C2D"/>
<path d="M149.843 17.0296C149.843 17.0296 146.564 25.2742 145.092 29.7747H145.016C144.916 28.3253 143.723 17.0296 143.723 17.0296H138.212L141.368 34.0607C141.444 34.4395 141.406 34.6681 141.254 34.9336C140.644 36.1091 139.619 37.2476 138.402 38.0825C137.414 38.8029 136.312 39.2578 135.438 39.5615L136.883 44C137.947 43.7726 140.151 42.8997 142.013 41.155C144.408 38.9172 146.612 35.4648 148.892 30.7607L155.316 17.0284H149.843V17.0296Z" fill="#150C2D"/>
</svg>
