<svg width="16" height="17" viewBox="0 0 16 17" fill="none" xmlns="http://www.w3.org/2000/svg">
<path d="M13.8734 8.03074H1.98225C1.34806 8.03074 0.826172 7.50886 0.826172 6.87467V4.68141C0.826172 4.23219 1.13665 3.77637 1.55283 3.61122L7.49839 1.23301C7.74942 1.13392 8.10619 1.13392 8.35722 1.23301L14.3028 3.61122C14.719 3.77637 15.0294 4.2388 15.0294 4.68141V6.87467C15.0294 7.50886 14.5075 8.03074 13.8734 8.03074ZM7.9278 2.14467C7.90138 2.14467 7.87497 2.14463 7.86176 2.15124L1.92278 4.52948C1.88314 4.5493 1.8171 4.63517 1.8171 4.68141V6.87467C1.8171 6.96715 1.88977 7.03982 1.98225 7.03982H13.8734C13.9658 7.03982 14.0385 6.96715 14.0385 6.87467V4.68141C14.0385 4.63517 13.9791 4.5493 13.9328 4.52948L7.98728 2.15124C7.97406 2.14463 7.95423 2.14467 7.9278 2.14467Z" fill="#150C2D"/>
<path d="M14.534 15.2975H1.32163C1.05078 15.2975 0.826172 15.0729 0.826172 14.8021V12.8202C0.826172 12.186 1.34806 11.6641 1.98225 11.6641H13.8734C14.5075 11.6641 15.0294 12.186 15.0294 12.8202V14.8021C15.0294 15.0729 14.8048 15.2975 14.534 15.2975ZM1.8171 14.3066H14.0385V12.8202C14.0385 12.7277 13.9658 12.655 13.8734 12.655H1.98225C1.88977 12.655 1.8171 12.7277 1.8171 12.8202V14.3066Z" fill="#150C2D"/>
<path d="M2.64292 12.655C2.37207 12.655 2.14746 12.4304 2.14746 12.1596V7.53526C2.14746 7.2644 2.37207 7.03979 2.64292 7.03979C2.91378 7.03979 3.13839 7.2644 3.13839 7.53526V12.1596C3.13839 12.4304 2.91378 12.655 2.64292 12.655Z" fill="#150C2D"/>
<path d="M5.28453 12.655C5.01367 12.655 4.78906 12.4304 4.78906 12.1596V7.53526C4.78906 7.2644 5.01367 7.03979 5.28453 7.03979C5.55538 7.03979 5.77999 7.2644 5.77999 7.53526V12.1596C5.77999 12.4304 5.55538 12.655 5.28453 12.655Z" fill="#150C2D"/>
<path d="M7.9271 12.655C7.65625 12.655 7.43164 12.4304 7.43164 12.1596V7.53526C7.43164 7.2644 7.65625 7.03979 7.9271 7.03979C8.19796 7.03979 8.42257 7.2644 8.42257 7.53526V12.1596C8.42257 12.4304 8.19796 12.655 7.9271 12.655Z" fill="#150C2D"/>
<path d="M10.5697 12.655C10.2988 12.655 10.0742 12.4304 10.0742 12.1596V7.53526C10.0742 7.2644 10.2988 7.03979 10.5697 7.03979C10.8405 7.03979 11.0651 7.2644 11.0651 7.53526V12.1596C11.0651 12.4304 10.8405 12.655 10.5697 12.655Z" fill="#150C2D"/>
<path d="M13.2123 12.655C12.9414 12.655 12.7168 12.4304 12.7168 12.1596V7.53526C12.7168 7.2644 12.9414 7.03979 13.2123 7.03979C13.4831 7.03979 13.7077 7.2644 13.7077 7.53526V12.1596C13.7077 12.4304 13.4831 12.655 13.2123 12.655Z" fill="#150C2D"/>
<path d="M15.1941 15.2975H0.660502C0.389649 15.2975 0.165039 15.0729 0.165039 14.802C0.165039 14.5312 0.389649 14.3066 0.660502 14.3066H15.1941C15.4649 14.3066 15.6895 14.5312 15.6895 14.802C15.6895 15.0729 15.4649 15.2975 15.1941 15.2975Z" fill="#150C2D"/>
<path d="M7.92779 6.37921C7.10863 6.37921 6.44141 5.71199 6.44141 4.89282C6.44141 4.07366 7.10863 3.40643 7.92779 3.40643C8.74696 3.40643 9.41418 4.07366 9.41418 4.89282C9.41418 5.71199 8.74696 6.37921 7.92779 6.37921ZM7.92779 4.39736C7.65694 4.39736 7.43233 4.62197 7.43233 4.89282C7.43233 5.16367 7.65694 5.38828 7.92779 5.38828C8.19865 5.38828 8.42326 5.16367 8.42326 4.89282C8.42326 4.62197 8.19865 4.39736 7.92779 4.39736Z" fill="#150C2D"/>
</svg>
