<svg width="17" height="17" viewBox="0 0 17 17" fill="none" xmlns="http://www.w3.org/2000/svg">
<g clip-path="url(#clip0_157_1129)">
<path d="M14.8747 9.37975V14.1667H15.583V15.5833H1.41634V14.1667H2.12467V9.37975C1.6886 9.08869 1.33114 8.69447 1.08401 8.23209C0.836873 7.7697 0.707719 7.25346 0.708008 6.72917C0.708008 6.14338 0.866675 5.57884 1.15638 5.09788L3.07738 1.77084C3.13955 1.66316 3.22897 1.57374 3.33664 1.51157C3.44432 1.44941 3.56646 1.41667 3.6908 1.41667H13.3093C13.4336 1.41667 13.5557 1.44941 13.6634 1.51157C13.7711 1.57374 13.8605 1.66316 13.9227 1.77084L15.8366 5.08726C16.2592 5.78912 16.395 6.62684 16.2158 7.42627C16.0367 8.2257 15.5564 8.92534 14.8747 9.37975V9.37975ZM13.458 9.89684C12.971 9.95147 12.4779 9.89297 12.0172 9.72588C11.5565 9.5588 11.1405 9.28763 10.8018 8.93351C10.5044 9.24451 10.1471 9.49204 9.75145 9.66114C9.35579 9.83024 8.92996 9.91741 8.49967 9.91738C8.06949 9.91759 7.64373 9.83065 7.24807 9.66179C6.85241 9.49294 6.49506 9.24567 6.19759 8.93492C5.85874 9.28892 5.44277 9.55995 4.98206 9.72692C4.52134 9.89388 4.02831 9.95227 3.54134 9.89755V14.1667H13.458V9.89755V9.89684ZM4.10022 2.83334L2.37684 5.81755C2.20938 6.23132 2.20435 6.69307 2.36277 7.11038C2.52119 7.5277 2.83136 7.86979 3.23122 8.0682C3.63108 8.26661 4.09111 8.30669 4.51925 8.18042C4.9474 8.05415 5.31206 7.77085 5.54026 7.38721C5.77755 6.79434 6.61693 6.79434 6.85493 7.38721C6.98618 7.71617 7.21306 7.99822 7.50626 8.19691C7.79945 8.3956 8.1455 8.50181 8.49967 8.50181C8.85385 8.50181 9.1999 8.3956 9.49309 8.19691C9.78629 7.99822 10.0132 7.71617 10.1444 7.38721C10.3817 6.79434 11.2211 6.79434 11.4591 7.38721C11.551 7.61349 11.6888 7.8183 11.8636 7.98878C12.0385 8.15926 12.2468 8.29172 12.4754 8.37783C12.7039 8.46394 12.9478 8.50185 13.1917 8.48916C13.4356 8.47647 13.6743 8.41346 13.8926 8.3041C14.111 8.19474 14.3044 8.04138 14.4607 7.85367C14.6169 7.66597 14.7327 7.44796 14.8006 7.21337C14.8686 6.97878 14.8873 6.73266 14.8555 6.4905C14.8238 6.24834 14.7423 6.01536 14.6161 5.80621L12.8984 2.83334H4.10092H4.10022Z" fill="#150C2D"/>
</g>
<defs>
<clipPath id="clip0_157_1129">
<rect width="17" height="17" fill="white"/>
</clipPath>
</defs>
</svg>
