<svg width="20" height="20" viewBox="0 0 20 20" fill="none" xmlns="http://www.w3.org/2000/svg">
<g clip-path="url(#clip0_161_1194)">
<path d="M16.7355 12.6667L17.7372 13.2675C17.799 13.3045 17.8502 13.3569 17.8857 13.4195C17.9212 13.4822 17.9399 13.553 17.9399 13.625C17.9399 13.697 17.9212 13.7678 17.8857 13.8305C17.8502 13.8931 17.799 13.9455 17.7372 13.9825L10.4289 18.3675C10.2993 18.4454 10.1509 18.4865 9.99972 18.4865C9.84851 18.4865 9.70016 18.4454 9.57055 18.3675L2.26222 13.9825C2.20042 13.9455 2.14927 13.8931 2.11375 13.8305C2.07824 13.7678 2.05957 13.697 2.05957 13.625C2.05957 13.553 2.07824 13.4822 2.11375 13.4195C2.14927 13.3569 2.20042 13.3045 2.26222 13.2675L3.26388 12.6667L9.99972 16.7083L16.7355 12.6667V12.6667ZM16.7355 8.75L17.7372 9.35083C17.799 9.38783 17.8502 9.44021 17.8857 9.50286C17.9212 9.56552 17.9399 9.63631 17.9399 9.70833C17.9399 9.78035 17.9212 9.85115 17.8857 9.9138C17.8502 9.97646 17.799 10.0288 17.7372 10.0658L9.99972 14.7083L2.26222 10.0658C2.20042 10.0288 2.14927 9.97646 2.11375 9.9138C2.07824 9.85115 2.05957 9.78035 2.05957 9.70833C2.05957 9.63631 2.07824 9.56552 2.11375 9.50286C2.14927 9.44021 2.20042 9.38783 2.26222 9.35083L3.26388 8.75L9.99972 12.7917L16.7355 8.75ZM10.428 1.09083L17.7372 5.47583C17.799 5.51283 17.8502 5.56521 17.8857 5.62786C17.9212 5.69052 17.9399 5.76131 17.9399 5.83333C17.9399 5.90535 17.9212 5.97615 17.8857 6.0388C17.8502 6.10146 17.799 6.15384 17.7372 6.19083L9.99972 10.8333L2.26222 6.19083C2.20042 6.15384 2.14927 6.10146 2.11375 6.0388C2.07824 5.97615 2.05957 5.90535 2.05957 5.83333C2.05957 5.76131 2.07824 5.69052 2.11375 5.62786C2.14927 5.56521 2.20042 5.51283 2.26222 5.47583L9.57055 1.09083C9.70016 1.01296 9.84851 0.971825 9.99972 0.971825C10.1509 0.971825 10.2993 1.01296 10.4289 1.09083H10.428ZM9.99972 2.77667L4.90555 5.83333L9.99972 8.89L15.0939 5.83333L9.99972 2.77667Z" fill="#150C2D"/>
</g>
<defs>
<clipPath id="clip0_161_1194">
<rect width="20" height="20" fill="white"/>
</clipPath>
</defs>
</svg>
