<svg width="20" height="20" viewBox="0 0 20 20" fill="none" xmlns="http://www.w3.org/2000/svg">
<g clip-path="url(#clip0_160_1186)">
<path d="M12.7496 4.625C12.1163 4.62489 11.5082 4.87343 11.0562 5.31714C10.6042 5.76084 10.3445 6.36424 10.3329 6.9975L10.3096 8.31C10.3082 8.38047 10.292 8.44985 10.2619 8.5136C10.2319 8.57735 10.1887 8.63402 10.1351 8.6799C10.0816 8.72577 10.019 8.75982 9.95144 8.7798C9.88385 8.79978 9.8128 8.80524 9.74294 8.79583L8.44211 8.61917C6.73044 8.38583 5.09044 7.5975 3.51711 6.28667C3.01878 9.045 3.99211 10.9558 6.33628 12.43L7.79211 13.345C7.86128 13.3885 7.91875 13.4482 7.95948 13.519C8.00022 13.5899 8.02298 13.6696 8.02577 13.7512C8.02857 13.8329 8.01131 13.914 7.97552 13.9874C7.93973 14.0608 7.88648 14.1244 7.82044 14.1725L6.49378 15.1417C7.28294 15.1908 8.03211 15.1558 8.65378 15.0325C12.5854 14.2475 15.1996 11.2892 15.1996 6.40917C15.1996 6.01083 14.3563 4.625 12.7496 4.625V4.625ZM8.66628 6.96667C8.68082 6.16337 8.93202 5.38222 9.38841 4.72102C9.8448 4.05981 10.4861 3.54793 11.232 3.24947C11.978 2.95101 12.7954 2.87923 13.5819 3.04312C14.3684 3.20701 15.0891 3.59929 15.6538 4.17083C16.2463 4.16667 16.7504 4.31667 17.8779 3.63333C17.5988 5 17.4613 5.59333 16.8663 6.40917C16.8663 12.7775 12.9521 15.8742 8.98044 16.6667C6.25711 17.21 2.29711 16.3175 1.16211 15.1325C1.74044 15.0875 4.09044 14.835 5.44878 13.8408C4.29961 13.0833 -0.274557 10.3917 2.73128 3.155C4.14211 4.8025 5.57294 5.92417 7.02294 6.51917C7.98794 6.915 8.22461 6.90667 8.66711 6.9675L8.66628 6.96667Z" fill="#150C2D"/>
</g>
<defs>
<clipPath id="clip0_160_1186">
<rect width="20" height="20" fill="white"/>
</clipPath>
</defs>
</svg>
