<svg width="26" height="26" viewBox="0 0 26 26" fill="none" xmlns="http://www.w3.org/2000/svg">
<path d="M2.13348 24.2666C1.92015 24.2666 1.71745 24.1813 1.56812 24.032C1.36545 23.8293 1.28017 23.5306 1.35483 23.2533L2.69885 18.2293C1.80285 16.5653 1.33348 14.688 1.33348 12.7893C1.33348 6.46397 6.47481 1.32263 12.8001 1.32263C19.1255 1.32263 24.2668 6.46397 24.2668 12.7893C24.2668 19.1146 19.1255 24.256 12.8001 24.256C10.8695 24.256 8.98151 23.776 7.29618 22.8586L2.34683 24.2346C2.27216 24.256 2.20815 24.2666 2.13348 24.2666ZM7.40282 21.2053C7.54148 21.2053 7.68016 21.248 7.80816 21.312C9.31216 22.1973 11.0401 22.6666 12.8001 22.6666C18.2401 22.6666 22.6668 18.24 22.6668 12.8C22.6668 7.35998 18.2401 2.93331 12.8001 2.93331C7.36015 2.93331 2.93348 7.35998 2.93348 12.8C2.93348 14.5386 3.39214 16.2346 4.25614 17.728C4.3628 17.9093 4.39482 18.1333 4.34149 18.336L3.27482 22.3253L7.20015 21.2373C7.26415 21.216 7.33882 21.2053 7.40282 21.2053Z" fill="#150C2D"/>
<path d="M15.7229 18.944C15.0616 18.944 14.3789 18.7946 13.6643 18.4853C12.9923 18.1973 12.3203 17.8133 11.6696 17.3333C11.0296 16.864 10.4003 16.3307 9.82428 15.7547C9.24828 15.168 8.71491 14.5493 8.24557 13.9093C7.76557 13.2373 7.38157 12.576 7.10423 11.9253C6.80557 11.2213 6.65625 10.528 6.65625 9.86666C6.65625 9.39733 6.74156 8.94933 6.90156 8.53333C7.07223 8.096 7.34957 7.70132 7.71224 7.35999C8.39491 6.68799 9.37628 6.44268 10.1549 6.81601C10.4216 6.93334 10.6456 7.12534 10.8163 7.38134L12.0536 9.11998C12.1816 9.29065 12.2776 9.47198 12.3523 9.65332C12.4376 9.86665 12.491 10.08 12.491 10.2827C12.491 10.56 12.4163 10.8373 12.2669 11.0827C12.1709 11.2427 12.0322 11.4347 11.8509 11.616L11.7122 11.7653C11.7762 11.8507 11.8509 11.9573 11.9682 12.0853C12.1922 12.3413 12.4376 12.6186 12.7042 12.8853C12.9709 13.1413 13.2376 13.3973 13.5042 13.6213C13.6322 13.728 13.739 13.8133 13.8243 13.8667L13.9736 13.7173C14.1656 13.5253 14.3576 13.376 14.5496 13.28C14.9016 13.056 15.4456 13.0027 15.9256 13.2053C16.0963 13.2693 16.2669 13.3653 16.4482 13.4933L18.2296 14.752C18.475 14.9226 18.6669 15.1573 18.7949 15.424C18.9016 15.6907 18.9443 15.9253 18.9443 16.1707C18.9443 16.4907 18.8696 16.8 18.7309 17.0987C18.5923 17.376 18.4322 17.6213 18.2402 17.8453C17.8989 18.2187 17.5043 18.496 17.0776 18.6773C16.6509 18.8587 16.1923 18.944 15.7229 18.944ZM9.37624 8.25599C9.31224 8.25599 9.09896 8.25599 8.83229 8.52265C8.62963 8.71465 8.49092 8.91734 8.39492 9.14134C8.29892 9.36534 8.25625 9.62134 8.25625 9.87734C8.25625 10.3253 8.3629 10.8053 8.57624 11.3173C8.80024 11.8506 9.13093 12.416 9.53626 12.9813C9.95226 13.5467 10.4216 14.112 10.9443 14.6347C11.4669 15.1467 12.0216 15.6266 12.5976 16.0533C13.1523 16.4586 13.7176 16.7787 14.2829 17.024C15.0936 17.376 15.8402 17.4613 16.4482 17.2053C16.6616 17.12 16.8536 16.9707 17.0456 16.7787C17.1416 16.672 17.2163 16.5653 17.2803 16.4267C17.3123 16.352 17.3336 16.2667 17.3336 16.192C17.3336 16.1707 17.3336 16.1387 17.3016 16.0747L15.5202 14.8373C15.4456 14.784 15.3709 14.7413 15.3069 14.72C15.2642 14.7413 15.2003 14.7733 15.0829 14.8907L14.6776 15.296C14.3683 15.6053 13.8776 15.6906 13.4829 15.552L13.291 15.4667C13.0456 15.3387 12.7683 15.1467 12.4589 14.88C12.1603 14.624 11.8723 14.3573 11.563 14.0587C11.2643 13.7493 10.9976 13.4613 10.7416 13.1627C10.4643 12.832 10.2723 12.5653 10.1443 12.3413L10.027 12.064C9.99495 11.9573 9.98425 11.84 9.98425 11.7333C9.98425 11.4347 10.091 11.168 10.2936 10.9547L10.699 10.5387C10.8163 10.4213 10.8589 10.3573 10.8803 10.3147C10.8483 10.24 10.8056 10.176 10.7523 10.1013L9.50423 8.34134L9.37624 8.25599Z" fill="#150C2D"/>
</svg>
